<svg width="17" height="17" viewBox="0 0 17 17" fill="none" xmlns="http://www.w3.org/2000/svg">
<path d="M11.4874 4.33165C11.5058 4.31538 11.5206 4.29537 11.5307 4.27296C11.5408 4.25055 11.546 4.22624 11.546 4.20165C11.546 4.17705 11.5408 4.15274 11.5307 4.13033C11.5206 4.10792 11.5058 4.08791 11.4874 4.07165C10.4605 3.38506 9.22719 3.0762 7.99795 3.19778C6.76872 3.31937 5.6198 3.86387 4.74736 4.73831C3.87458 5.61033 3.33111 6.75797 3.20955 7.98572C3.08799 9.21348 3.39585 10.4454 4.08069 11.4716C4.09631 11.4911 4.1161 11.5068 4.1386 11.5176C4.1611 11.5284 4.18574 11.534 4.21069 11.534C4.23565 11.534 4.26029 11.5284 4.28279 11.5176C4.30529 11.5068 4.32508 11.4911 4.34069 11.4716L11.4874 4.33165Z" fill="white"/>
<path d="M16.5 8.5C16.5 6.91775 16.0308 5.37104 15.1518 4.05544C14.2727 2.73985 13.0233 1.71447 11.5615 1.10897C10.0997 0.503466 8.49113 0.34504 6.93928 0.653721C5.38743 0.962403 3.96197 1.72433 2.84315 2.84315C1.72433 3.96197 0.962403 5.38743 0.653721 6.93928C0.34504 8.49113 0.503466 10.0997 1.10897 11.5615C1.71447 13.0233 2.73985 14.2727 4.05544 15.1518C5.37104 16.0308 6.91775 16.5 8.5 16.5C10.6217 16.5 12.6566 15.6571 14.1569 14.1569C15.6571 12.6566 16.5 10.6217 16.5 8.5ZM15.1133 8.5C15.1322 9.37615 14.9745 10.2471 14.6495 11.061C14.3245 11.8748 13.8389 12.6149 13.2217 13.2371C12.6046 13.8592 11.8684 14.3507 11.0572 14.6822C10.246 15.0138 9.37627 15.1785 8.5 15.1667C7.6223 15.1747 6.75179 15.0077 5.93934 14.6755C5.12688 14.3433 4.38877 13.8526 3.76811 13.2319C3.14745 12.6112 2.65669 11.8731 2.32449 11.0607C1.9923 10.2482 1.82533 9.37771 1.83334 8.5C1.83334 6.63334 3.26667 1.83334 8.5 1.83334C9.37576 1.82335 10.2446 1.98937 11.055 2.32154C11.8654 2.65371 12.6008 3.14526 13.2176 3.76704C13.8344 4.38882 14.32 5.12815 14.6457 5.94118C14.9713 6.7542 15.1304 7.62435 15.1133 8.5Z" fill="white"/>
<path d="M12.6671 5.5143L5.51376 12.6676C5.49532 12.6839 5.48055 12.7039 5.47043 12.7263C5.46031 12.7487 5.45508 12.773 5.45508 12.7976C5.45508 12.8222 5.46031 12.8465 5.47043 12.8689C5.48055 12.8914 5.49532 12.9114 5.51376 12.9276C6.31649 13.4702 7.25186 13.7839 8.21942 13.8349C9.18698 13.886 10.1502 13.6725 11.0055 13.2174C11.8609 12.7623 12.5761 12.0828 13.0744 11.2518C13.5727 10.4209 13.8352 9.46987 13.8338 8.50097C13.8346 7.44372 13.5188 6.41046 12.9271 5.5343C12.9123 5.51454 12.8935 5.49816 12.8718 5.48627C12.8502 5.47438 12.8262 5.46725 12.8016 5.46535C12.777 5.46346 12.7523 5.46685 12.7291 5.47529C12.7059 5.48373 12.6847 5.49703 12.6671 5.5143Z" fill="white"/>
</svg>
