<svg width="17" height="17" viewBox="0 0 17 17" fill="none" xmlns="http://www.w3.org/2000/svg">
<path d="M14.8327 1.83203H2.16602C1.9008 1.83203 1.64645 1.93739 1.45891 2.12492C1.27137 2.31246 1.16602 2.56681 1.16602 2.83203V11.4987C1.16602 11.7639 1.27137 12.0183 1.45891 12.2058C1.64645 12.3933 1.9008 12.4987 2.16602 12.4987H4.99935C5.04355 12.4987 5.08594 12.5163 5.1172 12.5475C5.14846 12.5788 5.16602 12.6212 5.16602 12.6654V14.832C5.16561 14.8987 5.18518 14.9639 5.2222 15.0193C5.25922 15.0746 5.31198 15.1177 5.37369 15.1428C5.4354 15.1679 5.50322 15.174 5.56839 15.1601C5.63357 15.1463 5.69312 15.1133 5.73935 15.0654L8.25935 12.5454C8.29018 12.5165 8.33048 12.4999 8.37268 12.4987H14.8327C15.0979 12.4987 15.3523 12.3933 15.5398 12.2058C15.7273 12.0183 15.8327 11.7639 15.8327 11.4987V2.83203C15.8327 2.56681 15.7273 2.31246 15.5398 2.12492C15.3523 1.93739 15.0979 1.83203 14.8327 1.83203Z" fill="white"/>
</svg>
