<svg width="32" height="32" viewBox="0 0 32 32" fill="none" xmlns="http://www.w3.org/2000/svg">
<rect x="0.5" y="0.5" width="31" height="31" rx="15.5" stroke="#DF6A70"/>
<path fill-rule="evenodd" clip-rule="evenodd" d="M11.7789 17.7911C11.9871 17.5762 12.33 17.5708 12.5449 17.7789C12.5449 17.7789 14.4272 19.6025 15.4186 20.5631L15.4186 10.0404C15.4186 9.74121 15.6611 9.4987 15.9603 9.4987C16.2594 9.4987 16.502 9.74121 16.502 10.0404L16.502 20.6513L19.3683 17.785C19.5798 17.5734 19.9228 17.5734 20.1343 17.785C20.3459 17.9965 20.3459 18.3395 20.1343 18.551L16.776 21.9093C16.3478 22.3375 15.6798 22.3375 15.2516 21.9093L11.7911 18.557C11.5762 18.3489 11.5708 18.0059 11.7789 17.7911Z" fill="#DF6A70"/>
</svg>
