<svg width="17" height="17" viewBox="0 0 17 17" fill="none" xmlns="http://www.w3.org/2000/svg">
<g clip-path="url(#clip0_4003_245)">
<path d="M16.0338 3.8881C15.7214 3.27701 15.2698 2.74789 14.7154 2.3434C14.1609 1.93891 13.5192 1.67037 12.8419 1.55944C12.1646 1.4485 11.4707 1.49828 10.8162 1.70475C10.1617 1.91122 9.56486 2.26861 9.07383 2.7481L8.5005 3.2681L7.94717 2.76143C7.45574 2.27435 6.8553 1.91142 6.19561 1.70273C5.53592 1.49404 4.83598 1.4456 4.15383 1.56143C3.47552 1.66674 2.83228 1.93291 2.27788 2.33768C1.72349 2.74246 1.27406 3.27408 0.967167 3.8881C0.554219 4.69486 0.409768 5.61244 0.554873 6.50706C0.699979 7.40167 1.12705 8.22655 1.77383 8.86143L8.0205 15.3014C8.08269 15.366 8.15725 15.4173 8.23972 15.4523C8.32219 15.4874 8.41089 15.5054 8.5005 15.5054C8.59011 15.5054 8.67881 15.4874 8.76128 15.4523C8.84375 15.4173 8.91831 15.366 8.9805 15.3014L15.2205 8.87476C15.8695 8.23855 16.2984 7.41173 16.4447 6.51477C16.591 5.6178 16.447 4.69755 16.0338 3.8881Z" fill="white"/>
</g>
<defs>
<clipPath id="clip0_4003_245">
<rect width="16" height="16" fill="white" transform="translate(0.5 0.5)"/>
</clipPath>
</defs>
</svg>
