<svg width="12" height="17" viewBox="0 0 12 17" fill="none" xmlns="http://www.w3.org/2000/svg">
<path d="M11.6673 6.5013C11.6673 6.14768 11.5268 5.80854 11.2768 5.55849C11.0267 5.30844 10.6876 5.16797 10.334 5.16797H8.16732C8.12311 5.16797 8.08072 5.18553 8.04947 5.21678C8.01821 5.24804 8.00065 5.29043 8.00065 5.33464V6.33464C8.00065 6.37884 8.01821 6.42123 8.04947 6.45249C8.08072 6.48374 8.12311 6.5013 8.16732 6.5013H10.0007C10.0891 6.5013 10.1738 6.53642 10.2364 6.59893C10.2989 6.66144 10.334 6.74623 10.334 6.83464V14.8346C10.334 14.923 10.2989 15.0078 10.2364 15.0703C10.1738 15.1328 10.0891 15.168 10.0007 15.168H2.00065C1.91225 15.168 1.82746 15.1328 1.76495 15.0703C1.70244 15.0078 1.66732 14.923 1.66732 14.8346V6.83464C1.66732 6.74623 1.70244 6.66144 1.76495 6.59893C1.82746 6.53642 1.91225 6.5013 2.00065 6.5013H3.83398C3.87819 6.5013 3.92058 6.48374 3.95184 6.45249C3.98309 6.42123 4.00065 6.37884 4.00065 6.33464V5.33464C4.00065 5.29043 3.98309 5.24804 3.95184 5.21678C3.92058 5.18553 3.87819 5.16797 3.83398 5.16797H1.66732C1.3137 5.16797 0.974557 5.30844 0.724509 5.55849C0.47446 5.80854 0.333984 6.14768 0.333984 6.5013V15.168C0.333984 15.5216 0.47446 15.8607 0.724509 16.1108C0.974557 16.3608 1.3137 16.5013 1.66732 16.5013H10.334C10.6876 16.5013 11.0267 16.3608 11.2768 16.1108C11.5268 15.8607 11.6673 15.5216 11.6673 15.168V6.5013Z" fill="white"/>
<path d="M5.00154 7.83329C5.00154 8.09851 5.1069 8.35286 5.29443 8.5404C5.48197 8.72794 5.73632 8.83329 6.00154 8.83329C6.26676 8.83329 6.52111 8.72794 6.70865 8.5404C6.89618 8.35286 7.00154 8.09851 7.00154 7.83329V4.33329C7.00154 4.28909 7.0191 4.2467 7.05036 4.21544C7.08161 4.18419 7.124 4.16663 7.16821 4.16663H8.33487C8.46649 4.16597 8.59497 4.12637 8.70412 4.05281C8.81326 3.97926 8.89819 3.87504 8.94821 3.75329C8.99926 3.63189 9.01321 3.49808 8.98829 3.36875C8.96338 3.23942 8.90071 3.12038 8.80821 3.02663L6.47487 0.693293C6.4129 0.630807 6.33916 0.581211 6.25793 0.547365C6.17669 0.513519 6.08955 0.496094 6.00154 0.496094C5.91353 0.496094 5.8264 0.513519 5.74516 0.547365C5.66392 0.581211 5.59018 0.630807 5.52821 0.693293L3.19487 3.02663C3.10125 3.11963 3.03733 3.23833 3.01122 3.36769C2.98512 3.49705 2.99799 3.63125 3.04821 3.75329C3.09865 3.87609 3.18461 3.98103 3.29507 4.05467C3.40553 4.12831 3.53546 4.16729 3.66821 4.16663H4.83487C4.87908 4.16663 4.92147 4.18419 4.95273 4.21544C4.98398 4.2467 5.00154 4.28909 5.00154 4.33329V7.83329Z" fill="white"/>
</svg>
