<svg width="20" height="20" viewBox="0 0 20 20" fill="none" xmlns="http://www.w3.org/2000/svg">
<g clip-path="url(#clip0_4003_926)">
<path fill-rule="evenodd" clip-rule="evenodd" d="M10.0004 10.7148C7.23899 10.7148 5.00042 8.47627 5.00042 5.71484V2.8577C5.00042 2.66826 5.07568 2.48657 5.20963 2.35263C5.57346 2.00214 6.01722 1.72927 6.46669 1.50454C7.26833 1.10372 8.44845 0.714844 10.0004 0.714844C11.5524 0.714844 12.7325 1.10372 13.5341 1.50454C13.9865 1.7307 14.4213 2.00574 14.7913 2.35263C14.9251 2.48657 15.0004 2.66826 15.0004 2.8577V5.71484C15.0004 8.47627 12.7618 10.7148 10.0004 10.7148ZM0.766944 18.2971C2.27338 14.6847 5.8392 12.1434 10.0003 12.1434C14.1613 12.1434 17.7271 14.6847 19.2336 18.2971C19.3256 18.5176 19.3011 18.7694 19.1687 18.9681C19.0363 19.1668 18.8131 19.2863 18.5743 19.2863H1.4262C1.18734 19.2863 0.964289 19.1668 0.831822 18.9681C0.699354 18.7694 0.675009 18.5176 0.766944 18.2971Z" fill="white"/>
</g>
<defs>
<clipPath id="clip0_4003_926">
<rect width="20" height="20" fill="white"/>
</clipPath>
</defs>
</svg>
